<mxfile host="Electron" modified="2023-12-20T17:22:00.598Z" agent="Mozilla/5.0 (Windows NT 10.0; Win64; x64) AppleWebKit/537.36 (KHTML, like Gecko) draw.io/22.1.11 Chrome/114.0.5735.289 Electron/25.9.8 Safari/537.36" etag="AZj6X6JvuJnHwLWw3Hn5" version="22.1.11" type="device">
  <diagram name="Page-1" id="2kv95_S9ppU2QMb1D_ik">
    <mxGraphModel dx="1560" dy="2092" grid="1" gridSize="10" guides="1" tooltips="1" connect="1" arrows="1" fold="1" page="1" pageScale="1" pageWidth="850" pageHeight="1100" math="0" shadow="0">
      <root>
        <mxCell id="0" />
        <mxCell id="1" parent="0" />
        <mxCell id="C6YLQu7LwwH9nNPaw7_u-40" value="" style="group" vertex="1" connectable="0" parent="1">
          <mxGeometry x="77" y="-373" width="769" height="769" as="geometry" />
        </mxCell>
        <mxCell id="C6YLQu7LwwH9nNPaw7_u-33" value="" style="ellipse;whiteSpace=wrap;html=1;aspect=fixed;fillColor=#d5e8d4;strokeColor=#82b366;" vertex="1" parent="C6YLQu7LwwH9nNPaw7_u-40">
          <mxGeometry width="769" height="769" as="geometry" />
        </mxCell>
        <mxCell id="C6YLQu7LwwH9nNPaw7_u-34" value="&lt;font style=&quot;font-size: 16px;&quot;&gt;Web&lt;/font&gt;" style="text;html=1;strokeColor=none;fillColor=none;align=center;verticalAlign=middle;whiteSpace=wrap;rounded=0;" vertex="1" parent="C6YLQu7LwwH9nNPaw7_u-40">
          <mxGeometry x="354.5" y="13" width="60" height="30" as="geometry" />
        </mxCell>
        <mxCell id="C6YLQu7LwwH9nNPaw7_u-35" value="Pages" style="rounded=1;whiteSpace=wrap;html=1;" vertex="1" parent="C6YLQu7LwwH9nNPaw7_u-40">
          <mxGeometry x="373" y="53" width="110" height="40" as="geometry" />
        </mxCell>
        <mxCell id="C6YLQu7LwwH9nNPaw7_u-37" value="DbInitializer" style="rounded=0;whiteSpace=wrap;html=1;" vertex="1" parent="C6YLQu7LwwH9nNPaw7_u-40">
          <mxGeometry x="573" y="153" width="110" height="40" as="geometry" />
        </mxCell>
        <mxCell id="C6YLQu7LwwH9nNPaw7_u-36" value="Program" style="rounded=0;whiteSpace=wrap;html=1;" vertex="1" parent="C6YLQu7LwwH9nNPaw7_u-40">
          <mxGeometry x="493" y="83" width="110" height="40" as="geometry" />
        </mxCell>
        <mxCell id="C6YLQu7LwwH9nNPaw7_u-39" value="Utility" style="rounded=0;whiteSpace=wrap;html=1;" vertex="1" parent="C6YLQu7LwwH9nNPaw7_u-40">
          <mxGeometry x="623" y="223" width="110" height="40" as="geometry" />
        </mxCell>
        <mxCell id="C6YLQu7LwwH9nNPaw7_u-32" value="" style="group" vertex="1" connectable="0" parent="1">
          <mxGeometry x="105" y="-260" width="640" height="640" as="geometry" />
        </mxCell>
        <mxCell id="C6YLQu7LwwH9nNPaw7_u-23" value="" style="ellipse;whiteSpace=wrap;html=1;aspect=fixed;fillColor=#dae8fc;strokeColor=#6c8ebf;" vertex="1" parent="C6YLQu7LwwH9nNPaw7_u-32">
          <mxGeometry width="640" height="640" as="geometry" />
        </mxCell>
        <mxCell id="C6YLQu7LwwH9nNPaw7_u-30" value="FollowRepository" style="rounded=0;whiteSpace=wrap;html=1;" vertex="1" parent="C6YLQu7LwwH9nNPaw7_u-32">
          <mxGeometry x="130" y="90" width="110" height="40" as="geometry" />
        </mxCell>
        <mxCell id="C6YLQu7LwwH9nNPaw7_u-19" value="CheepValidator" style="rounded=0;whiteSpace=wrap;html=1;" vertex="1" parent="C6YLQu7LwwH9nNPaw7_u-32">
          <mxGeometry x="240" y="40" width="110" height="40" as="geometry" />
        </mxCell>
        <mxCell id="C6YLQu7LwwH9nNPaw7_u-27" value="CheepRepository" style="rounded=0;whiteSpace=wrap;html=1;" vertex="1" parent="C6YLQu7LwwH9nNPaw7_u-32">
          <mxGeometry x="340" y="90" width="110" height="40" as="geometry" />
        </mxCell>
        <mxCell id="C6YLQu7LwwH9nNPaw7_u-28" value="AuthorValidator" style="rounded=0;whiteSpace=wrap;html=1;" vertex="1" parent="C6YLQu7LwwH9nNPaw7_u-32">
          <mxGeometry x="470" y="130" width="110" height="40" as="geometry" />
        </mxCell>
        <mxCell id="C6YLQu7LwwH9nNPaw7_u-16" value="&lt;font style=&quot;font-size: 16px;&quot;&gt;Infrastructure&lt;/font&gt;" style="text;html=1;strokeColor=none;fillColor=none;align=center;verticalAlign=middle;whiteSpace=wrap;rounded=0;" vertex="1" parent="C6YLQu7LwwH9nNPaw7_u-32">
          <mxGeometry x="315" y="10" width="60" height="30" as="geometry" />
        </mxCell>
        <mxCell id="C6YLQu7LwwH9nNPaw7_u-29" value="AuthorRepository" style="rounded=0;whiteSpace=wrap;html=1;" vertex="1" parent="C6YLQu7LwwH9nNPaw7_u-32">
          <mxGeometry x="500" y="200" width="110" height="40" as="geometry" />
        </mxCell>
        <mxCell id="C6YLQu7LwwH9nNPaw7_u-22" value="" style="group" vertex="1" connectable="0" parent="1">
          <mxGeometry x="140" y="-120" width="660" height="520" as="geometry" />
        </mxCell>
        <mxCell id="C6YLQu7LwwH9nNPaw7_u-1" value="" style="ellipse;whiteSpace=wrap;html=1;aspect=fixed;fillColor=#f8cecc;strokeColor=#b85450;" vertex="1" parent="C6YLQu7LwwH9nNPaw7_u-22">
          <mxGeometry width="480" height="480" as="geometry" />
        </mxCell>
        <mxCell id="C6YLQu7LwwH9nNPaw7_u-20" value="Cheep" style="rounded=0;whiteSpace=wrap;html=1;" vertex="1" parent="C6YLQu7LwwH9nNPaw7_u-22">
          <mxGeometry x="60" y="90" width="110" height="40" as="geometry" />
        </mxCell>
        <mxCell id="C6YLQu7LwwH9nNPaw7_u-21" value="&lt;font style=&quot;font-size: 16px;&quot;&gt;Model&lt;/font&gt;" style="text;html=1;strokeColor=none;fillColor=none;align=center;verticalAlign=middle;whiteSpace=wrap;rounded=0;" vertex="1" parent="C6YLQu7LwwH9nNPaw7_u-22">
          <mxGeometry x="190" y="10" width="60" height="30" as="geometry" />
        </mxCell>
        <mxCell id="C6YLQu7LwwH9nNPaw7_u-18" value="ChirpContext" style="rounded=0;whiteSpace=wrap;html=1;" vertex="1" parent="C6YLQu7LwwH9nNPaw7_u-22">
          <mxGeometry x="350" y="170" width="110" height="40" as="geometry" />
        </mxCell>
        <mxCell id="C6YLQu7LwwH9nNPaw7_u-17" value="Follow" style="rounded=0;whiteSpace=wrap;html=1;" vertex="1" parent="C6YLQu7LwwH9nNPaw7_u-22">
          <mxGeometry x="300" y="110" width="110" height="40" as="geometry" />
        </mxCell>
        <mxCell id="C6YLQu7LwwH9nNPaw7_u-25" value="Author" style="rounded=0;whiteSpace=wrap;html=1;" vertex="1" parent="C6YLQu7LwwH9nNPaw7_u-22">
          <mxGeometry x="190" y="70" width="110" height="40" as="geometry" />
        </mxCell>
        <mxCell id="C6YLQu7LwwH9nNPaw7_u-15" value="" style="group" vertex="1" connectable="0" parent="1">
          <mxGeometry x="190" y="30" width="420" height="320" as="geometry" />
        </mxCell>
        <mxCell id="C6YLQu7LwwH9nNPaw7_u-7" value="" style="ellipse;whiteSpace=wrap;html=1;aspect=fixed;fillColor=#fff2cc;strokeColor=#d6b656;" vertex="1" parent="C6YLQu7LwwH9nNPaw7_u-15">
          <mxGeometry width="320" height="320" as="geometry" />
        </mxCell>
        <mxCell id="C6YLQu7LwwH9nNPaw7_u-9" value="IAuthorRepository" style="rounded=0;whiteSpace=wrap;html=1;" vertex="1" parent="C6YLQu7LwwH9nNPaw7_u-15">
          <mxGeometry x="35" y="110" width="110" height="40" as="geometry" />
        </mxCell>
        <mxCell id="C6YLQu7LwwH9nNPaw7_u-10" value="ICheepRepository" style="rounded=0;whiteSpace=wrap;html=1;" vertex="1" parent="C6YLQu7LwwH9nNPaw7_u-15">
          <mxGeometry x="105" y="60" width="110" height="40" as="geometry" />
        </mxCell>
        <mxCell id="C6YLQu7LwwH9nNPaw7_u-11" value="IFollowRepository" style="rounded=0;whiteSpace=wrap;html=1;" vertex="1" parent="C6YLQu7LwwH9nNPaw7_u-15">
          <mxGeometry x="175" y="110" width="110" height="40" as="geometry" />
        </mxCell>
        <mxCell id="C6YLQu7LwwH9nNPaw7_u-13" value="CheepDTO" style="rounded=0;whiteSpace=wrap;html=1;" vertex="1" parent="C6YLQu7LwwH9nNPaw7_u-15">
          <mxGeometry x="100" y="180" width="110" height="40" as="geometry" />
        </mxCell>
        <mxCell id="C6YLQu7LwwH9nNPaw7_u-14" value="AuthorDTO" style="rounded=0;whiteSpace=wrap;html=1;" vertex="1" parent="C6YLQu7LwwH9nNPaw7_u-15">
          <mxGeometry x="110" y="240" width="110" height="40" as="geometry" />
        </mxCell>
        <mxCell id="C6YLQu7LwwH9nNPaw7_u-24" value="&lt;font style=&quot;font-size: 16px;&quot;&gt;Core&lt;/font&gt;" style="text;html=1;strokeColor=none;fillColor=none;align=center;verticalAlign=middle;whiteSpace=wrap;rounded=0;" vertex="1" parent="C6YLQu7LwwH9nNPaw7_u-15">
          <mxGeometry x="130" y="10" width="60" height="30" as="geometry" />
        </mxCell>
        <mxCell id="C6YLQu7LwwH9nNPaw7_u-52" value="" style="group" vertex="1" connectable="0" parent="1">
          <mxGeometry x="860" y="150" width="210" height="190" as="geometry" />
        </mxCell>
        <mxCell id="C6YLQu7LwwH9nNPaw7_u-41" value="" style="whiteSpace=wrap;html=1;" vertex="1" parent="C6YLQu7LwwH9nNPaw7_u-52">
          <mxGeometry width="210" height="190" as="geometry" />
        </mxCell>
        <mxCell id="C6YLQu7LwwH9nNPaw7_u-42" value="&lt;b&gt;&lt;font style=&quot;font-size: 14px;&quot;&gt;Legend&lt;/font&gt;&lt;/b&gt;" style="text;html=1;strokeColor=none;fillColor=none;align=center;verticalAlign=middle;whiteSpace=wrap;rounded=0;" vertex="1" parent="C6YLQu7LwwH9nNPaw7_u-52">
          <mxGeometry width="60" height="30" as="geometry" />
        </mxCell>
        <mxCell id="C6YLQu7LwwH9nNPaw7_u-50" value="Class name" style="rounded=0;whiteSpace=wrap;html=1;" vertex="1" parent="C6YLQu7LwwH9nNPaw7_u-52">
          <mxGeometry x="10" y="50" width="110" height="40" as="geometry" />
        </mxCell>
        <mxCell id="C6YLQu7LwwH9nNPaw7_u-51" value="Folder name" style="rounded=1;whiteSpace=wrap;html=1;" vertex="1" parent="C6YLQu7LwwH9nNPaw7_u-52">
          <mxGeometry x="10" y="110" width="110" height="40" as="geometry" />
        </mxCell>
      </root>
    </mxGraphModel>
  </diagram>
</mxfile>
